<svg id="Layer_1" data-name="Layer 1" xmlns="http://www.w3.org/2000/svg" viewBox="0 0 200 200"><defs><style>.cls-1{fill:#fff;}.cls-2{fill:none;stroke:#fff;stroke-miterlimit:10;stroke-width:1.33px;}</style></defs><title>Untitled-1</title><path class="cls-1" d="M114.72,96.06a.53.53,0,0,1-.53-.53V84.9a.53.53,0,0,1,1.06,0V95.53A.53.53,0,0,1,114.72,96.06Z"/><path class="cls-1" d="M114.72,85.43H104.1a.53.53,0,0,1-.54-.53.54.54,0,0,1,.54-.53h10.62a.53.53,0,0,1,.53.53A.53.53,0,0,1,114.72,85.43Z"/><path class="cls-1" d="M102,98.18a.51.51,0,0,1-.37-.15.53.53,0,0,1,0-.75l12.74-12.75a.53.53,0,0,1,.75.75L102.35,98A.55.55,0,0,1,102,98.18Z"/><path class="cls-1" d="M83.91,116.24a.53.53,0,0,1-.53-.53V105.09a.53.53,0,0,1,1.06,0v10.62A.53.53,0,0,1,83.91,116.24Z"/><path class="cls-1" d="M94.53,116.24H83.91a.53.53,0,0,1-.53-.53.53.53,0,0,1,.53-.53H94.53a.53.53,0,0,1,.53.53A.52.52,0,0,1,94.53,116.24Z"/><path class="cls-1" d="M83.91,116.24a.55.55,0,0,1-.38-.15.54.54,0,0,1,0-.75l12.75-12.75a.53.53,0,0,1,.75.75L84.29,116.09A.55.55,0,0,1,83.91,116.24Z"/><circle class="cls-2" cx="99.31" cy="100.31" r="33.2"/></svg>